<svg xmlns="http://www.w3.org/2000/svg" width="17" height="16" viewBox="0 0 17 16" fill="none">
  <path d="M9.1966 3.63953L12.8905 7.33333H2.49992C2.13173 7.33333 1.83325 7.63187 1.83325 8C1.83325 8.3682 2.13173 8.66667 2.49992 8.66667H12.8905L9.1966 12.3605C8.93627 12.6209 8.93627 13.043 9.1966 13.3033C9.457 13.5637 9.87907 13.5637 10.1394 13.3033L14.9713 8.47147C15.2317 8.21107 15.2317 7.789 14.9713 7.5286L10.1394 2.69673C10.0088 2.5661 9.83747 2.50101 9.66627 2.50147C9.6242 2.50158 9.58213 2.50565 9.54067 2.51367C9.4146 2.53807 9.29427 2.59909 9.1966 2.69673C8.93627 2.95707 8.93627 3.37919 9.1966 3.63953Z" fill="#F7F7F7"/>
</svg>