<svg width="24" height="24" viewBox="0 0 24 24" fill="none" xmlns="http://www.w3.org/2000/svg">
<g id="digitalocean">
<g id="Vector">
<path d="M12.005 21.992V18.115C16.109 18.115 19.293 14.047 17.719 9.72701C17.14 8.14001 15.86 6.86 14.262 6.281C9.943 4.718 5.873 7.891 5.873 11.995H2.008C2.008 5.454 8.333 0.353005 15.192 2.496C18.183 3.436 20.575 5.817 21.505 8.809C23.646 15.667 18.545 21.992 12.005 21.992Z" fill="#4628FF"/>
<path d="M12.017 18.139H8.152V14.273H12.017V18.139ZM8.152 21.098H5.193V18.139H8.152V21.098ZM5.193 18.139H2.711V15.656H5.193V18.139Z" fill="#4628FF"/>
</g>
</g>
</svg>
