<svg width="72" height="72" viewBox="0 0 72 72" fill="none" xmlns="http://www.w3.org/2000/svg">
<mask id="path-1-inside-1_8_12077" fill="white">
<path d="M72 36C72 55.8823 55.8823 72 36 72C16.1177 72 0 55.8823 0 36C0 16.1177 16.1177 0 36 0C55.8823 0 72 16.1177 72 36ZM5.92499 36C5.92499 52.61 19.39 66.075 36 66.075C52.61 66.075 66.075 52.61 66.075 36C66.075 19.39 52.61 5.92499 36 5.92499C19.39 5.92499 5.92499 19.39 5.92499 36Z"/>
</mask>
<path d="M72 36C72 55.8823 55.8823 72 36 72C16.1177 72 0 55.8823 0 36C0 16.1177 16.1177 0 36 0C55.8823 0 72 16.1177 72 36ZM5.92499 36C5.92499 52.61 19.39 66.075 36 66.075C52.61 66.075 66.075 52.61 66.075 36C66.075 19.39 52.61 5.92499 36 5.92499C19.39 5.92499 5.92499 19.39 5.92499 36Z" stroke="#4628FF" stroke-width="8" mask="url(#path-1-inside-1_8_12077)"/>
</svg>
