<svg width="72" height="72" viewBox="0 0 72 72" fill="none" xmlns="http://www.w3.org/2000/svg">
<circle cx="36" cy="36" r="33" stroke="black" stroke-opacity="0.5" stroke-width="6"/>
<mask id="path-3-inside-1_8_2688" fill="white">
<path d="M36 2.9625C36 1.32635 37.3287 -0.0126763 38.9593 0.121787C46.4649 0.740713 53.6157 3.70209 59.3801 8.62539C65.8981 14.1923 70.2159 21.9022 71.5568 30.3684C72.8977 38.8345 71.1738 47.5014 66.695 54.81C62.7341 61.2736 56.8485 66.2997 49.9015 69.2077C48.3922 69.8395 46.7147 68.9766 46.2091 67.4205C45.7035 65.8645 46.563 64.2065 48.0618 63.5504C53.6703 61.095 58.4197 56.9744 61.6432 51.7142C65.3848 45.6084 66.825 38.368 65.7047 31.2952C64.5845 24.2224 60.9774 17.7815 55.5322 13.1308C50.8409 9.12409 45.0506 6.67278 38.9579 6.07074C37.3297 5.90986 36 4.59864 36 2.9625Z"/>
</mask>
<path d="M36 2.9625C36 1.32635 37.3287 -0.0126763 38.9593 0.121787C46.4649 0.740713 53.6157 3.70209 59.3801 8.62539C65.8981 14.1923 70.2159 21.9022 71.5568 30.3684C72.8977 38.8345 71.1738 47.5014 66.695 54.81C62.7341 61.2736 56.8485 66.2997 49.9015 69.2077C48.3922 69.8395 46.7147 68.9766 46.2091 67.4205C45.7035 65.8645 46.563 64.2065 48.0618 63.5504C53.6703 61.095 58.4197 56.9744 61.6432 51.7142C65.3848 45.6084 66.825 38.368 65.7047 31.2952C64.5845 24.2224 60.9774 17.7815 55.5322 13.1308C50.8409 9.12409 45.0506 6.67278 38.9579 6.07074C37.3297 5.90986 36 4.59864 36 2.9625Z" stroke="#4628FF" stroke-width="8" mask="url(#path-3-inside-1_8_2688)"/>
</svg>
