<svg xmlns="http://www.w3.org/2000/svg" width="24" height="25" viewBox="0 0 24 25" fill="none">
  <path d="M11.9999 3.5722C7.03113 3.5722 2.99988 7.61535 2.99988 12.5988C2.99988 17.5822 7.03113 21.6253 11.9999 21.6253C16.9686 21.6253 20.9999 17.5822 20.9999 12.5988C20.9999 7.61535 16.9686 3.5722 11.9999 3.5722ZM11.7186 17.8642C11.5332 17.8642 11.3519 17.8091 11.1978 17.7058C11.0436 17.6025 10.9234 17.4556 10.8525 17.2838C10.7815 17.112 10.763 16.9229 10.7991 16.7405C10.8353 16.5581 10.9246 16.3906 11.0557 16.2591C11.1868 16.1276 11.3539 16.0381 11.5357 16.0018C11.7176 15.9655 11.9061 15.9841 12.0774 16.0553C12.2487 16.1264 12.3951 16.247 12.4981 16.4016C12.6011 16.5562 12.6561 16.738 12.6561 16.924C12.6561 17.1733 12.5574 17.4125 12.3815 17.5888C12.2057 17.7652 11.9673 17.8642 11.7186 17.8642ZM13.2861 13.0689C12.5263 13.5804 12.4218 14.0491 12.4218 14.4793C12.4218 14.6538 12.3526 14.8213 12.2295 14.9447C12.1065 15.0681 11.9395 15.1375 11.7655 15.1375C11.5915 15.1375 11.4245 15.0681 11.3015 14.9447C11.1784 14.8213 11.1093 14.6538 11.1093 14.4793C11.1093 13.4492 11.5818 12.6303 12.5539 11.9754C13.4577 11.367 13.9686 10.9815 13.9686 10.1338C13.9686 9.55746 13.6405 9.11977 12.9613 8.79585C12.8014 8.71969 12.4457 8.64541 12.0078 8.65058C11.4585 8.65763 11.0319 8.78927 10.7033 9.05442C10.0836 9.55464 10.0311 10.0991 10.0311 10.107C10.027 10.1935 10.0059 10.2782 9.96906 10.3565C9.93225 10.4348 9.88042 10.505 9.81654 10.5632C9.75267 10.6213 9.67799 10.6663 9.59678 10.6955C9.51557 10.7248 9.42942 10.7377 9.34324 10.7335C9.25706 10.7293 9.17254 10.7082 9.09451 10.6713C9.01648 10.6343 8.94647 10.5823 8.88846 10.5183C8.83046 10.4542 8.78561 10.3793 8.75647 10.2979C8.72733 10.2164 8.71447 10.13 8.71863 10.0436C8.72378 9.92934 8.803 8.90022 9.87972 8.03141C10.438 7.58103 11.1482 7.3469 11.9891 7.33656C12.5844 7.32951 13.1436 7.43058 13.5228 7.61017C14.6577 8.14848 15.2811 9.04596 15.2811 10.1338C15.2811 11.7243 14.2213 12.4384 13.2861 13.0689Z" fill="#0075FF"/>
</svg>