<svg width="24" height="24" viewBox="0 0 24 24" fill="none" xmlns="http://www.w3.org/2000/svg">
<g id="rocket-lunch (1) 1" clip-path="url(#clip0_8_2626)">
<path id="Vector" d="M2.75102 15H1.75834e-05V14C-0.0151207 12.5979 0.356212 11.2187 1.07328 10.0137C1.79035 8.80869 2.82544 7.82447 4.06502 7.169C5.28615 6.56691 6.60866 6.19728 7.96502 6.079C7.37235 6.81233 6.77802 7.59167 6.18202 8.417C4.83963 10.5019 3.69116 12.7055 2.75102 15ZM15.583 17.813C13.4983 19.1571 11.2947 20.3073 9.00002 21.249V24H10C11.4021 24.0151 12.7814 23.6438 13.9863 22.9267C15.1913 22.2097 16.1755 21.1746 16.831 19.935C17.4331 18.7139 17.8027 17.3914 17.921 16.035C17.191 16.625 16.4117 17.2177 15.583 17.813ZM24 2.991C23.867 7.344 20.733 11.661 14.418 16.191C12.6995 17.305 10.8866 18.2661 9.00002 19.063V18.5C8.99555 17.5731 8.62536 16.6855 7.96995 16.0301C7.31454 15.3747 6.4269 15.0045 5.50002 15H4.93702C5.73492 13.1135 6.6973 11.3008 7.81302 9.583C12.332 3.278 16.642 0.144 20.988 0C23.154 0 24 0.885 24 2.991ZM18 8.5C18 7.83696 17.7366 7.20108 17.2678 6.73223C16.7989 6.26339 16.1631 6 15.5 6C14.837 6 14.2011 6.26339 13.7323 6.73223C13.2634 7.20108 13 7.83696 13 8.5C13 9.16304 13.2634 9.79893 13.7323 10.2678C14.2011 10.7366 14.837 11 15.5 11C16.1631 11 16.7989 10.7366 17.2678 10.2678C17.7366 9.79893 18 9.16304 18 8.5ZM1.37402 23.785C2.50002 23.585 5.21502 23.027 6.12202 22.121C6.40062 21.8424 6.62161 21.5117 6.77239 21.1476C6.92317 20.7836 7.00077 20.3935 7.00077 19.9995C7.00077 19.6055 6.92317 19.2154 6.77239 18.8514C6.62161 18.4873 6.40062 18.1566 6.12202 17.878C5.84342 17.5994 5.51267 17.3784 5.14867 17.2276C4.78466 17.0769 4.39452 16.9992 4.00052 16.9992C3.2048 16.9992 2.44167 17.3153 1.87902 17.878C0.973018 18.785 0.414018 21.5 0.215018 22.626L-0.0319824 24.032L1.37402 23.785Z" fill="#4628FF"/>
</g>
<defs>
<clipPath id="clip0_8_2626">
<rect width="24" height="24" fill="white"/>
</clipPath>
</defs>
</svg>
